<svg width="14" height="11" viewBox="0 0 14 11" fill="none" xmlns="http://www.w3.org/2000/svg">
<path d="M6.04568 1.4315H7.95435C8.83758 1.4323 9.60446 2.04005 9.80701 2.89975C9.82401 2.97142 9.88794 3.02208 9.9616 3.02225H12.8864C12.9286 3.02241 12.9691 3.00576 12.999 2.97598C13.0289 2.94621 13.0457 2.90577 13.0457 2.86358V1.27225C13.0457 0.934727 12.9116 0.611037 12.6728 0.372427C12.4341 0.133817 12.1104 -0.000154622 11.7728 1.33924e-07H2.22718C1.88966 -0.000154622 1.5659 0.133817 1.32719 0.372427C1.08847 0.611037 0.954346 0.934727 0.954346 1.27225V2.86358C0.954345 2.90577 0.971142 2.94621 1.00102 2.97598C1.03091 3.00576 1.07141 3.02241 1.1136 3.02225H4.03843C4.11224 3.02251 4.1764 2.97166 4.19301 2.89975C4.39557 2.04005 5.16244 1.4323 6.04568 1.4315Z" fill="black"/>
<path d="M0.636417 3.97705C0.467581 3.9769 0.305616 4.0439 0.186231 4.16328C0.0668464 4.28267 -0.000154698 4.44463 2.68218e-07 4.61347V7.95422C-2.50467e-07 8.25668 0.212885 8.51736 0.50925 8.5778C0.583199 8.59301 0.636306 8.65805 0.636417 8.73355V10.0221C0.636417 10.3736 0.92135 10.6586 1.27283 10.6586C1.62432 10.6586 1.90925 10.3736 1.90925 10.0221V8.74988C1.9091 8.7077 1.92574 8.66719 1.95552 8.63731C1.98529 8.60743 2.02573 8.59063 2.06792 8.59063H11.9321C11.9743 8.59063 12.0147 8.60743 12.0445 8.63731C12.0743 8.66719 12.0909 8.7077 12.0908 8.74988V10.0221C12.0908 10.3736 12.3757 10.6586 12.7272 10.6586C13.0787 10.6586 13.3636 10.3736 13.3636 10.0221V8.73355C13.3637 8.65805 13.4168 8.59301 13.4908 8.5778C13.7871 8.51736 14 8.25668 14 7.95422V4.61347C14.0002 4.44463 13.9332 4.28267 13.8138 4.16328C13.6944 4.0439 13.5324 3.9769 13.3636 3.97705H0.636417Z" fill="black"/>
</svg>
