<svg width="16" height="16" viewBox="0 0 16 16" fill="none" xmlns="http://www.w3.org/2000/svg">
<path fill-rule="evenodd" clip-rule="evenodd" d="M15.3341 9.33115C15.5185 9.33248 15.6943 9.40963 15.8201 9.54448C15.9463 9.67667 16.0118 9.85541 16.0008 10.0378C15.8005 13.3852 13.0275 15.9975 9.67412 15.9978H6.32746C2.97404 15.9975 0.201119 13.3852 0.00078854 10.0378C-0.00799461 9.85586 0.0568881 9.67803 0.180789 9.54448C0.305709 9.40798 0.482422 9.33052 0.667455 9.33115H3.07946C3.22645 9.33253 3.35699 9.23747 3.40079 9.09715C3.57489 8.54353 4.0871 8.16611 4.66746 8.16382H8.00412C8.58447 8.16611 9.09669 8.54353 9.27079 9.09715C9.31423 9.23629 9.44303 9.33107 9.58879 9.33115H13.1668C13.3509 9.33115 13.5001 9.18191 13.5001 8.99782V1.99782C13.5009 1.73436 13.3464 1.49517 13.1059 1.38748C12.8655 1.2798 12.5842 1.32382 12.3881 1.49982L12.1148 1.77315C12.0258 1.86273 11.9951 1.99486 12.0355 2.11448C12.2679 2.80108 12.0915 3.56009 11.5801 4.07382L11.4468 4.21048C11.1865 4.47074 10.7645 4.47074 10.5041 4.21048L8.74079 2.44648C8.48053 2.18615 8.48053 1.76415 8.74079 1.50382L8.87745 1.36715C9.39727 0.870559 10.1478 0.69951 10.8315 0.921817C10.9502 0.959543 11.08 0.927915 11.1681 0.839817L11.4768 0.53115C12.0601 -0.00783461 12.907 -0.150635 13.6348 0.167293C14.3625 0.485222 14.8332 1.20364 14.8341 1.99782V8.99782C14.8341 9.18191 14.9834 9.33115 15.1675 9.33115H15.3341ZM7.66746 13.4978C7.85155 13.4978 8.00079 13.3486 8.00079 13.1645V9.83115C8.00079 9.64706 7.85155 9.49782 7.66746 9.49782H5.00079C4.81669 9.49782 4.66746 9.64706 4.66746 9.83115V13.1645C4.66746 13.3486 4.81669 13.4978 5.00079 13.4978H7.66746Z" fill="black"/>
<path d="M6.0008 4.05636C6.09705 4.0572 6.19235 4.03719 6.28013 3.9977L7.4908 3.43903C7.70742 3.33959 7.85454 3.13214 7.87673 2.89482C7.89893 2.6575 7.79283 2.42637 7.5984 2.28849C7.40397 2.1506 7.15075 2.12692 6.93413 2.22636L5.72146 2.78436C5.43717 2.91554 5.28247 3.22688 5.34963 3.53269C5.41678 3.8385 5.6877 4.05637 6.0008 4.05636Z" fill="black"/>
<path d="M9.41547 7.67054C9.75402 7.81496 10.1456 7.65769 10.2901 7.3192L10.8141 6.09254C10.9493 5.75606 10.7907 5.37328 10.4572 5.23093C10.1237 5.08857 9.73763 5.23886 9.58813 5.5692L9.06747 6.79787C8.92397 7.13496 9.07939 7.52468 9.41547 7.67054Z" fill="black"/>
<path d="M6.99143 6.04854C7.25047 6.31009 7.67248 6.31218 7.9341 6.05321L8.8821 5.11588C9.13664 4.85579 9.13557 4.43963 8.8797 4.18085C8.62383 3.92207 8.20771 3.91629 7.94476 4.16788L6.99676 5.10588C6.73503 5.36473 6.73264 5.78674 6.99143 6.04854Z" fill="black"/>
</svg>
